# Blender v2.79 (sub 6) OBJ File: 'basepanel.blend'
# www.blender.org
mtllib basepanel.mtl
o Cube
v -0.000681 -0.007784 -0.007590
v -0.000681 -0.007216 -0.007590
v -0.000681 -0.007216 -0.008188
v -0.000397 -0.007500 -0.008188
v -0.000397 -0.007784 -0.007889
v -0.000681 -0.007784 0.007590
v -0.000397 -0.007784 0.007889
v -0.000397 -0.007500 0.008188
v -0.000681 -0.007216 0.008188
v -0.000681 -0.007216 0.007590
v -0.000681 0.007216 0.008188
v -0.000397 0.007500 0.008188
v -0.000397 0.007784 0.007889
v -0.000681 0.007784 0.007590
v -0.000681 0.007216 0.007590
v -0.000681 0.007216 -0.008188
v -0.000681 0.007216 -0.007590
v -0.000681 0.007784 -0.007590
v -0.000397 0.007784 -0.007889
v -0.000397 0.007500 -0.008188
v 0.000397 -0.007784 -0.007889
v 0.000397 -0.007216 -0.007889
v 0.000681 -0.007216 -0.007590
v 0.000681 -0.007784 -0.007590
v 0.000397 -0.007500 0.008188
v 0.000397 -0.007500 0.007590
v 0.000681 -0.007216 0.007590
v 0.000681 -0.007216 0.008188
v 0.000397 0.007784 0.007889
v 0.000397 0.007216 0.007889
v 0.000681 0.007216 0.007590
v 0.000681 0.007784 0.007590
v 0.000397 0.007500 -0.008188
v 0.000397 0.007500 -0.007590
v 0.000681 0.007216 -0.007590
v 0.000681 0.007216 -0.008188
v -0.000681 -0.007784 0.000299
v -0.000681 -0.007216 0.000000
v -0.000681 -0.007784 -0.000299
v -0.000397 -0.007784 0.000000
v -0.000397 -0.007784 0.000000
v -0.000681 0.000284 -0.008188
v -0.000397 -0.000000 -0.008188
v -0.000397 -0.000000 -0.008188
v -0.000681 -0.000284 -0.008188
v -0.000681 -0.000000 -0.007590
v 0.000284 -0.007784 -0.007889
v -0.000284 -0.007784 -0.007889
v -0.000284 -0.007500 -0.008188
v 0.000284 -0.007500 -0.008188
v 0.000284 -0.007216 -0.007889
v 0.000284 -0.007216 -0.007889
v -0.000681 0.000284 0.008188
v -0.000681 -0.000000 0.007590
v -0.000681 -0.000284 0.008188
v -0.000397 0.000000 0.008188
v -0.000397 0.000000 0.008188
v 0.000284 -0.007500 0.008188
v -0.000284 -0.007500 0.008188
v -0.000284 -0.007784 0.007889
v 0.000284 -0.007784 0.007889
v 0.000284 -0.007500 0.007590
v 0.000284 -0.007500 0.007590
v -0.000681 0.007784 -0.000299
v -0.000681 0.007216 -0.000000
v -0.000681 0.007784 0.000299
v -0.000397 0.007784 -0.000000
v -0.000397 0.007784 -0.000000
v 0.000284 0.007784 0.007889
v -0.000284 0.007784 0.007889
v -0.000284 0.007500 0.008188
v 0.000284 0.007500 0.008188
v 0.000284 0.007216 0.007889
v 0.000284 0.007216 0.007889
v 0.000284 0.007500 -0.007590
v 0.000284 0.007500 -0.008188
v -0.000284 0.007500 -0.008188
v -0.000284 0.007784 -0.007889
v 0.000284 0.007784 -0.007889
v 0.000284 0.007500 -0.007590
v 0.000397 -0.007500 0.000299
v 0.000397 -0.007784 0.000000
v 0.000681 -0.007784 -0.000299
v 0.000681 -0.007216 0.000000
v 0.000681 0.000284 -0.008188
v 0.000681 -0.000000 -0.007590
v 0.000397 -0.000284 -0.007889
v 0.000397 -0.000000 -0.008188
v 0.000397 0.000284 0.007889
v 0.000397 0.000000 0.008188
v 0.000681 -0.000284 0.008188
v 0.000681 0.000000 0.007590
v 0.000397 0.007500 -0.000299
v 0.000397 0.007784 -0.000000
v 0.000681 0.007784 0.000299
v 0.000681 0.007216 -0.000000
v 0.000284 -0.000284 -0.007889
v 0.000284 -0.000000 -0.008188
v -0.000284 -0.000000 -0.008188
v -0.000284 -0.000000 -0.008188
v 0.000284 -0.000000 -0.008188
v 0.000284 -0.000284 -0.007889
v 0.000284 0.007500 -0.000299
v 0.000284 0.007784 -0.000000
v -0.000284 0.007784 -0.000000
v -0.000284 0.007784 -0.000000
v 0.000284 0.007784 -0.000000
v 0.000284 0.007500 -0.000299
v 0.000284 0.000284 0.007889
v 0.000284 0.000000 0.008188
v -0.000284 0.000000 0.008188
v -0.000284 0.000000 0.008188
v 0.000284 0.000000 0.008188
v 0.000284 0.000284 0.007889
v 0.000284 -0.007500 0.000299
v 0.000284 -0.007784 0.000000
v -0.000284 -0.007784 0.000000
v -0.000284 -0.007784 0.000000
v 0.000284 -0.007784 0.000000
v 0.000284 -0.007500 0.000299
v -0.000397 -0.007500 -0.008312
v -0.000681 -0.007216 -0.008312
v -0.000397 -0.007216 -0.008611
v -0.000397 -0.000000 -0.008312
v -0.000397 -0.000284 -0.008611
v -0.000681 -0.000284 -0.008312
v 0.000284 -0.007216 -0.008611
v 0.000284 -0.007500 -0.008312
v -0.000284 -0.007500 -0.008312
v -0.000284 -0.007216 -0.008611
v -0.000284 -0.000000 -0.008312
v 0.000284 -0.000000 -0.008312
v 0.000284 -0.000284 -0.008611
v -0.000284 -0.000284 -0.008611
v 0.001190 -0.007216 -0.007889
v 0.001190 -0.007500 -0.008188
v 0.001474 -0.007216 -0.008188
v 0.001190 -0.000284 -0.007889
v 0.001474 -0.000284 -0.008188
v 0.001190 -0.000000 -0.008188
v 0.001190 -0.007216 -0.008611
v 0.001474 -0.007216 -0.008312
v 0.001190 -0.007500 -0.008312
v 0.001190 -0.000284 -0.008611
v 0.001190 -0.000000 -0.008312
v 0.001474 -0.000284 -0.008312
v -0.000681 -0.007850 0.000299
v -0.000397 -0.007850 0.000000
v -0.000397 -0.008134 0.000299
v -0.000681 -0.007850 0.007590
v -0.000397 -0.008134 0.007590
v -0.000397 -0.007850 0.007889
v -0.000284 -0.007850 0.007889
v -0.000284 -0.008134 0.007590
v 0.000284 -0.008134 0.007590
v 0.000284 -0.007850 0.007889
v 0.000284 -0.008134 0.000299
v -0.000284 -0.008134 0.000299
v -0.000284 -0.007850 0.000000
v 0.000284 -0.007850 0.000000
v 0.001009 -0.007500 0.000299
v 0.001293 -0.007784 0.000299
v 0.001009 -0.007784 0.000000
v 0.001009 -0.007500 0.007590
v 0.001009 -0.007784 0.007889
v 0.001293 -0.007784 0.007590
v 0.001009 -0.008134 0.000299
v 0.001009 -0.007850 0.000000
v 0.001293 -0.007850 0.000299
v 0.001009 -0.008134 0.007590
v 0.001293 -0.007850 0.007590
v 0.001009 -0.007850 0.007889
v -0.000681 0.000284 0.008188
v -0.000397 0.000000 0.008188
v -0.000397 0.000284 0.008487
v -0.000681 0.007216 0.008188
v -0.000397 0.007216 0.008487
v -0.000397 0.007500 0.008188
v -0.000284 0.007500 0.008188
v -0.000284 0.007216 0.008487
v 0.000284 0.007216 0.008487
v 0.000284 0.007500 0.008188
v 0.000284 0.000284 0.008487
v -0.000284 0.000284 0.008487
v -0.000284 0.000000 0.008188
v 0.000284 0.000000 0.008188
v 0.001131 0.000284 0.007889
v 0.001415 0.000284 0.008188
v 0.001131 0.000000 0.008188
v 0.001131 0.007216 0.007889
v 0.001131 0.007500 0.008188
v 0.001415 0.007216 0.008188
v 0.001131 0.000284 0.008487
v 0.001131 0.000000 0.008188
v 0.001415 0.000284 0.008188
v 0.001131 0.007216 0.008487
v 0.001415 0.007216 0.008188
v 0.001131 0.007500 0.008188
v -0.000681 0.007798 -0.000299
v -0.000397 0.007798 -0.000000
v -0.000397 0.008082 -0.000299
v -0.000681 0.007798 -0.007590
v -0.000397 0.008082 -0.007590
v -0.000397 0.007798 -0.007889
v -0.000284 0.007798 -0.007889
v -0.000284 0.008082 -0.007590
v 0.000284 0.008082 -0.007590
v 0.000284 0.007798 -0.007889
v 0.000284 0.008082 -0.000299
v -0.000284 0.008082 -0.000299
v -0.000284 0.007798 -0.000000
v 0.000284 0.007798 -0.000000
v 0.001228 0.007500 -0.000299
v 0.001512 0.007784 -0.000299
v 0.001228 0.007784 -0.000000
v 0.001228 0.007500 -0.007590
v 0.001228 0.007784 -0.007889
v 0.001512 0.007784 -0.007590
v 0.001228 0.008082 -0.000299
v 0.001228 0.007798 -0.000000
v 0.001512 0.007798 -0.000299
v 0.001228 0.008082 -0.007590
v 0.001512 0.007798 -0.007590
v 0.001228 0.007798 -0.007889
v 0.000284 -0.007500 0.008343
v 0.000284 -0.007216 0.008642
v -0.000284 -0.007216 0.008642
v -0.000284 -0.007500 0.008343
v 0.000681 -0.007216 0.008343
v 0.000397 -0.007216 0.008642
v 0.000397 -0.007500 0.008343
v -0.000681 -0.007216 0.008343
v -0.000397 -0.007500 0.008343
v -0.000397 -0.007216 0.008642
v -0.000681 -0.000284 0.008343
v -0.000397 -0.000284 0.008642
v -0.000397 0.000000 0.008343
v 0.000681 -0.000284 0.008343
v 0.000397 0.000000 0.008343
v 0.000397 -0.000284 0.008642
v 0.000284 -0.000284 0.008642
v 0.000284 0.000000 0.008343
v -0.000284 0.000000 0.008343
v -0.000284 -0.000284 0.008642
v 0.000284 -0.008071 -0.007889
v 0.000284 -0.008355 -0.007590
v -0.000284 -0.008355 -0.007590
v -0.000284 -0.008071 -0.007889
v 0.000397 -0.008071 -0.007889
v 0.000681 -0.008071 -0.007590
v 0.000397 -0.008355 -0.007590
v -0.000681 -0.008071 -0.007590
v -0.000397 -0.008071 -0.007889
v -0.000397 -0.008355 -0.007590
v -0.000681 -0.008071 -0.000299
v -0.000397 -0.008355 -0.000299
v -0.000397 -0.008071 0.000000
v 0.000681 -0.008071 -0.000299
v 0.000397 -0.008071 0.000000
v 0.000397 -0.008355 -0.000299
v 0.000284 -0.008071 0.000000
v -0.000284 -0.008071 0.000000
v -0.000284 -0.008355 -0.000299
v 0.000284 -0.008355 -0.000299
v -0.000681 0.000284 -0.008573
v -0.000397 0.000284 -0.008872
v -0.000397 -0.000000 -0.008573
v -0.000681 0.007216 -0.008573
v -0.000397 0.007500 -0.008573
v -0.000397 0.007216 -0.008872
v -0.000284 0.007500 -0.008573
v 0.000284 0.007500 -0.008573
v 0.000284 0.007216 -0.008872
v -0.000284 0.007216 -0.008872
v 0.000397 0.007500 -0.008573
v 0.000681 0.007216 -0.008573
v 0.000397 0.007216 -0.008872
v 0.000681 0.000284 -0.008573
v 0.000397 -0.000000 -0.008573
v 0.000397 0.000284 -0.008872
v -0.000284 0.000284 -0.008872
v 0.000284 0.000284 -0.008872
v 0.000284 -0.000000 -0.008573
v -0.000284 -0.000000 -0.008573
v 0.000284 0.007941 0.007889
v 0.000284 0.008226 0.007590
v -0.000284 0.008226 0.007590
v -0.000284 0.007941 0.007889
v 0.000397 0.007941 0.007889
v 0.000681 0.007941 0.007590
v 0.000397 0.008226 0.007590
v -0.000681 0.007941 0.007590
v -0.000397 0.007941 0.007889
v -0.000397 0.008226 0.007590
v -0.000397 0.007941 -0.000000
v -0.000681 0.007941 0.000299
v -0.000397 0.008226 0.000299
v 0.000681 0.007941 0.000299
v 0.000397 0.007941 -0.000000
v 0.000397 0.008226 0.000299
v 0.000284 0.008226 0.000299
v 0.000284 0.007941 -0.000000
v -0.000284 0.007941 -0.000000
v -0.000284 0.008226 0.000299
vn 0.0000 -1.0000 0.0000
vn 1.0000 -0.0000 0.0000
vn -0.0000 1.0000 -0.0000
vn 0.0000 0.0000 -1.0000
vn -0.0000 0.0000 1.0000
vn -1.0000 -0.0000 0.0000
vn 0.0000 0.8664 -0.4994
vn -0.8608 -0.3689 -0.3507
vn -0.8608 -0.3689 0.3507
vn -0.8608 0.3689 0.3507
vn -0.8608 0.3689 -0.3507
vn 0.7248 -0.0000 -0.6890
vn 0.7071 -0.7071 0.0000
vn 0.7248 0.0000 0.6890
vn 0.7071 0.7071 0.0000
vn -0.8944 -0.4472 0.0000
vn -0.9032 -0.0000 -0.4293
vn 0.3407 -0.6814 -0.6478
vn -0.9032 0.0000 0.4293
vn 0.3407 -0.6814 0.6478
vn -0.8944 0.4472 0.0000
vn 0.3407 0.6814 0.6478
vn 0.3407 0.6814 -0.6478
vn 0.7541 -0.3771 0.5377
vn 0.7478 -0.5608 -0.3554
vn 0.7478 0.5608 0.3554
vn 0.7541 0.3771 -0.5377
vn 0.0000 0.3853 0.9228
vn 0.7542 0.1281 0.6441
vn 0.0000 -0.3561 -0.9344
vn -0.3877 0.5049 0.7712
vn -0.5868 -0.5868 -0.5579
vn -0.5868 0.5868 -0.5579
vn 0.0000 -0.7248 -0.6890
vn 0.0000 0.7248 -0.6890
vn 0.5868 -0.5868 0.5579
vn 0.5868 0.5868 0.5579
vn 0.5868 -0.5868 -0.5579
vn 0.5868 0.5868 -0.5579
vn -0.5868 -0.5868 0.5579
vn 0.0000 -0.7248 0.6890
vn -0.5868 0.5868 0.5579
vn 0.0000 0.7248 0.6890
vn -0.7248 -0.0000 -0.6890
vn 0.0000 0.0001 -1.0000
vn -0.7071 -0.7071 -0.0000
vn -0.7071 0.7071 -0.0000
vn -0.7248 -0.0000 0.6890
vn 0.0000 0.7585 0.6517
vn -0.6328 -0.7737 0.0312
vn 0.9602 0.2794 0.0000
usemtl Material
s off
f 50//1 128//1 143//1 136//1
f 139//2 137//2 142//2 146//2
f 28//2 91//2 238//2 229//2
f 32//2 95//2 298//2 290//2
f 36//2 85//2 278//2 276//2
f 90//3 113//3 242//3 239//3
f 78//4 19//4 204//4 205//4
f 24//2 83//2 258//2 250//2
f 5//4 48//4 248//4 253//4
f 47//4 21//4 249//4 245//4
f 114//5 89//5 30//5 74//5
f 68//5 105//5 211//5 200//5
f 66//6 14//6 292//6 296//6
f 11//5 53//5 173//5 176//5
f 120//1 81//1 26//1 63//1
f 8//1 59//1 228//1 233//1
f 22//4 52//4 102//4 87//4
f 88//1 101//1 283//1 279//1
f 6//6 37//6 147//6 150//6
f 127//4 133//4 144//4 141//4
f 97//5 51//5 135//5 138//5
f 112//3 56//3 237//3 243//3
f 58//1 25//1 231//1 225//1
f 149//1 158//1 154//1 151//1
f 3//6 45//6 126//6 122//6
f 212//5 104//5 215//5 220//5
f 155//1 157//1 167//1 170//1
f 55//6 9//6 232//6 235//6
f 100//1 43//1 267//1 284//1
f 130//4 123//4 125//4 134//4
f 175//5 184//5 180//5 177//5
f 106//4 67//4 295//4 303//4
f 61//5 156//5 172//5 165//5
f 162//2 166//2 171//2 169//2
f 181//5 183//5 193//5 196//5
f 13//5 70//5 288//5 293//5
f 115//3 62//3 164//3 161//3
f 188//5 192//5 197//5 195//5
f 201//3 210//3 206//3 203//3
f 160//4 116//4 163//4 168//4
f 103//1 80//1 216//1 213//1
f 72//7 182//7 198//7 191//7
f 207//3 209//3 219//3 222//3
f 109//4 73//4 190//4 187//4
f 82//5 119//5 261//5 259//5
f 20//3 77//3 271//3 269//3
f 226//5 230//5 240//5 241//5
f 79//4 208//4 224//4 217//4
f 186//5 110//5 189//5 194//5
f 214//2 218//2 223//2 221//2
f 246//1 251//1 260//1 264//1
f 234//5 227//5 244//5 236//5
f 94//4 107//4 302//4 299//4
f 69//5 29//5 289//5 285//5
f 60//5 7//5 152//5 153//5
f 57//1 111//1 185//1 174//1
f 281//4 266//4 270//4 274//4
f 254//1 247//1 263//1 256//1
f 96//2 31//2 92//2 27//2 84//2 23//2 86//2 35//2
f 41//4 117//4 159//4 148//4
f 49//1 4//1 121//1 129//1
f 54//6 15//6 65//6 17//6 46//6 2//6 38//6 10//6
f 280//4 282//4 273//4 277//4
f 286//3 291//3 300//3 301//3
f 118//5 40//5 257//5 262//5
f 108//3 93//3 34//3 75//3
f 44//3 99//3 131//3 124//3
f 18//6 64//6 199//6 202//6
f 294//3 287//3 304//3 297//3
f 42//6 16//6 268//6 265//6
f 132//3 98//3 140//3 145//3
f 71//3 12//3 178//3 179//3
f 76//3 33//3 275//3 272//3
f 1//8 2//8 3//8 4//8 5//8
f 6//9 7//9 8//9 9//9 10//9
f 11//10 12//10 13//10 14//10 15//10
f 16//11 17//11 18//11 19//11 20//11
f 21//12 22//12 23//12 24//12
f 25//13 26//13 27//13 28//13
f 29//14 30//14 31//14 32//14
f 33//15 34//15 35//15 36//15
f 37//16 38//16 39//16 40//16 41//16
f 42//17 43//17 44//17 45//17 46//17
f 47//18 48//18 49//18 50//18 51//18 52//18
f 53//19 54//19 55//19 56//19 57//19
f 58//20 59//20 60//20 61//20 62//20 63//20
f 64//21 65//21 66//21 67//21 68//21
f 69//22 70//22 71//22 72//22 73//22 74//22
f 75//23 76//23 77//23 78//23 79//23 80//23
f 81//24 82//24 83//24 84//24
f 85//25 86//25 87//25 88//25
f 89//26 90//26 91//26 92//26
f 93//27 94//27 95//27 96//27
f 97//28 98//28 99//28 100//28 101//28 102//28
f 103//29 104//29 105//29 106//29 107//29 108//29
f 109//30 110//30 111//30 112//30 113//30 114//30
f 115//31 116//31 117//31 118//31 119//31 120//31
f 121//32 122//32 123//32
f 124//33 125//33 126//33
f 127//34 128//34 129//34 130//34
f 131//35 132//35 133//35 134//35
f 135//36 136//36 137//36
f 138//37 139//37 140//37
f 141//38 142//38 143//38
f 144//39 145//39 146//39
f 147//32 148//32 149//32
f 150//40 151//40 152//40
f 153//41 154//41 155//41 156//41
f 157//34 158//34 159//34 160//34
f 161//39 162//39 163//39
f 164//37 165//37 166//37
f 167//38 168//38 169//38
f 170//36 171//36 172//36
f 173//40 174//40 175//40
f 176//42 177//42 178//42
f 179//43 180//43 181//43 182//43
f 183//41 184//41 185//41 186//41
f 187//38 188//38 189//38
f 190//39 191//39 192//39
f 193//36 194//36 195//36
f 196//37 197//37 198//37
f 199//42 200//42 201//42
f 202//33 203//33 204//33
f 205//35 206//35 207//35 208//35
f 209//43 210//43 211//43 212//43
f 213//36 214//36 215//36
f 216//38 217//38 218//38
f 219//37 220//37 221//37
f 222//39 223//39 224//39
f 225//41 226//41 227//41 228//41
f 229//36 230//36 231//36
f 232//40 233//40 234//40
f 235//42 236//42 237//42
f 238//37 239//37 240//37
f 241//43 242//43 243//43 244//43
f 245//34 246//34 247//34 248//34
f 249//38 250//38 251//38
f 252//32 253//32 254//32
f 255//40 256//40 257//40
f 258//36 259//36 260//36
f 261//41 262//41 263//41 264//41
f 265//32 266//32 267//32
f 268//33 269//33 270//33
f 271//35 272//35 273//35 274//35
f 275//39 276//39 277//39
f 278//38 279//38 280//38
f 281//34 282//34 283//34 284//34
f 285//43 286//43 287//43 288//43
f 289//37 290//37 291//37
f 292//42 293//42 294//42
f 295//33 296//33 297//33
f 298//39 299//39 300//39
f 301//35 302//35 303//35 304//35
f 37//6 6//6 10//6 38//6
f 46//6 17//6 16//6 42//6
f 52//4 22//4 21//4 47//4
f 53//6 11//6 15//6 54//6
f 63//1 26//1 25//1 58//1
f 64//6 18//6 17//6 65//6
f 74//5 30//5 29//5 69//5
f 75//3 34//3 33//3 76//3
f 84//13 27//13 26//13 81//13
f 85//2 36//2 35//2 86//2
f 92//14 31//14 30//14 89//14
f 96//15 35//15 34//15 93//15
f 1//6 39//6 38//6 2//6
f 2//6 46//6 45//6 3//6
f 4//34 49//34 48//34 5//34
f 9//6 55//6 54//6 10//6
f 7//41 60//41 59//41 8//41
f 14//6 66//6 65//6 15//6
f 12//43 71//43 70//43 13//43
f 19//35 78//35 77//35 20//35
f 23//2 84//2 83//2 24//2
f 22//12 87//12 86//12 23//12
f 27//2 92//2 91//2 28//2
f 31//2 96//2 95//2 32//2
f 76//3 272//3 271//3 77//3
f 51//5 97//5 102//5 52//5
f 101//34 88//34 87//34 102//34
f 43//5 100//5 99//5 44//5
f 108//2 75//2 80//2 103//2
f 66//44 296//44 295//44 67//44
f 105//1 68//1 67//1 106//1
f 93//35 108//35 107//35 94//35
f 114//5 74//5 73//5 109//5
f 28//13 229//13 231//13 25//13
f 111//45 57//45 56//45 112//45
f 89//43 114//43 113//43 90//43
f 120//3 63//3 62//3 115//3
f 118//5 262//5 261//5 119//5
f 117//3 41//3 40//3 118//3
f 81//41 120//41 119//41 82//41
f 124//35 131//35 134//35 125//35
f 130//4 134//4 133//4 127//4
f 123//34 130//34 129//34 121//34
f 122//44 126//44 125//44 123//44
f 128//1 50//1 49//1 129//1
f 98//3 132//3 131//3 99//3
f 121//46 4//46 3//46 122//46
f 44//47 124//47 126//47 45//47
f 137//14 139//14 138//14 135//14
f 141//12 144//12 146//12 142//12
f 142//13 137//13 136//13 143//13
f 139//15 146//15 145//15 140//15
f 132//35 145//35 144//35 133//35
f 143//34 128//34 127//34 141//34
f 135//41 51//41 50//41 136//41
f 140//43 98//43 97//43 138//43
f 149//46 151//46 150//46 147//46
f 151//41 154//41 153//41 152//41
f 157//1 155//1 154//1 158//1
f 158//34 149//34 148//34 159//34
f 41//44 148//44 147//44 37//44
f 152//48 7//48 6//48 150//48
f 156//5 61//5 60//5 153//5
f 116//4 160//4 159//4 117//4
f 161//15 164//15 166//15 162//15
f 169//13 171//13 170//13 167//13
f 171//14 166//14 165//14 172//14
f 162//12 169//12 168//12 163//12
f 115//35 161//35 163//35 116//35
f 167//34 157//34 160//34 168//34
f 155//41 170//41 172//41 156//41
f 164//43 62//43 61//43 165//43
f 175//48 177//48 176//48 173//48
f 177//43 180//43 179//43 178//43
f 183//5 181//5 180//5 184//5
f 184//41 175//41 174//41 185//41
f 11//5 176//5 178//5 12//5
f 182//49 72//49 71//49 179//49
f 57//50 174//50 173//50 53//50
f 110//5 186//5 185//5 111//5
f 187//12 190//12 192//12 188//12
f 195//14 197//14 196//14 193//14
f 197//51 192//51 191//51 198//51
f 188//5 195//5 194//5 189//5
f 186//41 194//41 193//41 183//41
f 198//43 182//43 181//43 196//43
f 109//34 187//34 189//34 110//34
f 190//35 73//35 72//35 191//35
f 201//47 203//47 202//47 199//47
f 203//35 206//35 205//35 204//35
f 209//3 207//3 206//3 210//3
f 210//43 201//43 200//43 211//43
f 18//44 202//44 204//44 19//44
f 208//4 79//4 78//4 205//4
f 104//5 212//5 211//5 105//5
f 199//48 64//48 68//48 200//48
f 213//13 216//13 218//13 214//13
f 221//15 223//15 222//15 219//15
f 223//12 218//12 217//12 224//12
f 214//14 221//14 220//14 215//14
f 207//35 222//35 224//35 208//35
f 216//34 80//34 79//34 217//34
f 215//41 104//41 103//41 213//41
f 219//43 209//43 212//43 220//43
f 225//41 231//41 230//41 226//41
f 234//48 236//48 235//48 232//48
f 233//41 228//41 227//41 234//41
f 229//14 238//14 240//14 230//14
f 226//5 241//5 244//5 227//5
f 243//43 237//43 236//43 244//43
f 239//43 242//43 241//43 240//43
f 228//1 59//1 58//1 225//1
f 8//46 233//46 232//46 9//46
f 237//47 56//47 55//47 235//47
f 112//3 243//3 242//3 113//3
f 238//15 91//15 90//15 239//15
f 245//34 249//34 251//34 246//34
f 254//46 256//46 255//46 252//46
f 253//34 248//34 247//34 254//34
f 250//13 258//13 260//13 251//13
f 246//1 264//1 263//1 247//1
f 262//41 257//41 256//41 263//41
f 259//41 261//41 264//41 260//41
f 258//14 83//14 82//14 259//14
f 24//12 250//12 249//12 21//12
f 248//4 48//4 47//4 245//4
f 39//48 255//48 257//48 40//48
f 252//44 1//44 5//44 253//44
f 265//44 268//44 270//44 266//44
f 272//35 275//35 277//35 273//35
f 280//12 277//12 276//12 278//12
f 269//35 271//35 274//35 270//35
f 281//4 274//4 273//4 282//4
f 282//34 280//34 279//34 283//34
f 266//34 281//34 284//34 267//34
f 268//47 16//47 20//47 269//47
f 100//1 284//1 283//1 101//1
f 278//13 85//13 88//13 279//13
f 275//15 33//15 36//15 276//15
f 42//46 265//46 267//46 43//46
f 285//43 289//43 291//43 286//43
f 294//47 297//47 296//47 292//47
f 293//43 288//43 287//43 294//43
f 290//15 298//15 300//15 291//15
f 286//3 301//3 304//3 287//3
f 303//35 295//35 297//35 304//35
f 299//35 302//35 301//35 300//35
f 302//4 107//4 106//4 303//4
f 32//14 290//14 289//14 29//14
f 288//5 70//5 69//5 285//5
f 13//48 293//48 292//48 14//48
f 298//12 95//12 94//12 299//12
f 39//6 1//6 252//6 255//6
o Cube.001
v 0.000273 -0.008893 0.009409
v 0.000273 0.008861 0.009409
v 0.000273 -0.008893 -0.009586
v 0.000273 0.008861 -0.009586
v -0.000959 -0.008893 0.009409
v -0.000959 0.008861 0.009409
v -0.000959 -0.008893 -0.009586
v -0.000959 0.008861 -0.009586
vn 1.0000 0.0000 0.0000
vn 0.0000 0.0000 -1.0000
vn -1.0000 0.0000 0.0000
vn 0.0000 0.0000 1.0000
vn 0.0000 -1.0000 0.0000
vn 0.0000 1.0000 0.0000
usemtl None
s off
f 305//52 307//52 308//52 306//52
f 307//53 311//53 312//53 308//53
f 311//54 309//54 310//54 312//54
f 309//55 305//55 306//55 310//55
f 307//56 305//56 309//56 311//56
f 312//57 310//57 306//57 308//57
