# Blender v2.79 (sub 0) OBJ File: 'bomb.blend'
# www.blender.org
o Cube_Cube.002
v 0.006112 -0.011587 -0.000601
v 0.006112 -0.011587 -0.020601
v 0.006112 -0.031587 -0.000601
v 0.006112 -0.031587 -0.020601
v 0.006112 -0.011587 0.001072
v 0.006112 -0.031587 0.001072
v 0.006112 -0.009768 -0.000601
v 0.006112 -0.009768 -0.020601
v 0.006112 -0.009768 0.001072
v 0.006112 0.009734 -0.000601
v 0.006112 0.009734 -0.020601
v 0.006112 0.009734 0.001072
v 0.006112 0.011287 -0.000601
v 0.006112 0.011287 -0.020601
v 0.006112 0.011287 0.001072
v 0.006112 0.031735 -0.000601
v 0.006112 0.031735 -0.020601
v 0.006112 0.031735 0.001072
v -0.013888 0.033498 -0.000601
v 0.006112 0.033498 -0.000601
v 0.006112 0.033498 -0.020601
v -0.013888 0.033498 -0.020601
v -0.013888 0.033498 0.001072
v 0.006112 0.033498 0.001072
v -0.013888 -0.033312 -0.020601
v -0.013888 -0.033312 -0.000601
v 0.006112 -0.033312 -0.000601
v 0.006112 -0.033312 -0.020601
v 0.006112 -0.033312 0.001072
v -0.013888 -0.033312 0.001072
v 0.006112 -0.011587 -0.022414
v 0.006112 -0.009768 -0.022414
v -0.013888 -0.011587 -0.022414
v -0.013888 -0.031587 -0.022414
v 0.006112 -0.031587 -0.022414
v 0.006112 -0.033312 -0.022414
v -0.013888 -0.009768 -0.022414
v -0.013888 0.009734 -0.022414
v -0.013888 0.011287 -0.022414
v 0.006112 0.009734 -0.022414
v 0.006112 0.011287 -0.022414
v 0.006112 0.031735 -0.022414
v -0.013888 0.031735 -0.022414
v 0.006112 0.033498 -0.022414
v -0.013888 0.033498 -0.022414
v -0.013888 -0.033312 -0.022414
v 0.006112 -0.011587 0.020298
v 0.006112 -0.031587 0.020298
v 0.006112 -0.009768 0.020298
v 0.006112 0.009734 0.020298
v 0.006112 0.011287 0.020298
v 0.006112 0.031735 0.020298
v -0.013888 0.033498 0.020298
v 0.006112 0.033498 0.020298
v 0.006112 -0.033312 0.020298
v -0.013888 -0.033312 0.020298
v 0.006112 -0.009768 0.022245
v 0.006112 0.009734 0.022245
v -0.013888 -0.009768 0.022245
v -0.013888 -0.011587 0.022245
v -0.013888 0.009734 0.022245
v 0.006112 0.011287 0.022245
v 0.006112 -0.011587 0.022245
v 0.006112 -0.031587 0.022245
v -0.013888 -0.031587 0.022245
v -0.013888 0.011287 0.022245
v 0.006112 -0.033312 0.022245
v -0.013888 -0.033312 0.022245
v -0.013888 0.031735 0.022245
v -0.013888 0.033498 0.022245
v 0.006112 0.033498 0.022245
v 0.006112 0.031735 0.022245
v 0.001663 -0.011587 -0.000601
v 0.001663 -0.011587 -0.020601
v 0.001663 -0.031587 -0.020601
v 0.001663 -0.031587 -0.000601
v 0.001663 -0.009768 0.020298
v 0.001663 0.009734 0.020298
v 0.001663 -0.011587 0.001072
v 0.001663 -0.031587 0.001072
v 0.001663 -0.009768 -0.000601
v 0.001663 -0.009768 -0.020601
v 0.001663 0.009734 -0.000601
v 0.001663 0.009734 -0.020601
v 0.001663 -0.009768 0.001072
v 0.001663 0.009734 0.001072
v 0.001663 0.011287 -0.020601
v 0.001663 0.031735 -0.020601
v 0.001663 0.011287 -0.000601
v 0.001663 -0.011587 0.020298
v 0.001663 -0.031587 0.020298
v 0.001663 0.031735 -0.000601
v 0.001663 0.011287 0.001072
v 0.001663 0.031735 0.001072
v 0.001663 0.011287 0.020298
v 0.001663 0.031735 0.020298
vt 1.000000 0.000000
vt 0.000000 1.000000
vt 0.000000 0.000000
vt 1.000000 0.000000
vt 0.000000 1.000000
vt 0.000000 0.000000
vt 1.000000 0.000000
vt 0.000000 0.000000
vt 1.000000 0.000000
vt 0.000000 1.000000
vt 0.000000 0.000000
vt 1.000000 0.000000
vt 0.000000 1.000000
vt 0.000000 0.000000
vt 1.000000 0.000000
vt 0.000000 1.000000
vt 0.000000 0.000000
vt 1.000000 0.000000
vt 0.000000 1.000000
vt 0.000000 0.000000
vt 1.000000 0.000000
vt 0.000000 1.000000
vt 0.000000 0.000000
vt 1.000000 0.000000
vt 0.000000 1.000000
vt 0.000000 0.000000
vt 1.000000 0.000000
vt 0.000000 1.000000
vt 0.000000 0.000000
vt 1.000000 0.000000
vt 0.000000 1.000000
vt 0.000000 0.000000
vt 1.000000 0.000000
vt 0.000000 1.000000
vt 0.000000 0.000000
vt 0.500000 0.000000
vt 0.095491 0.206108
vt 0.024472 0.345492
vt 1.000000 0.000000
vt 0.000000 1.000000
vt 0.000000 0.000000
vt 0.961940 0.308658
vt 0.308658 0.038060
vt 0.146447 0.146446
vt 0.066987 0.250000
vt 0.933013 0.250000
vt 1.000000 0.000000
vt 0.000000 1.000000
vt 0.000000 0.000000
vt 1.000000 0.000000
vt 0.000000 0.000000
vt 1.000000 0.000000
vt 0.000000 1.000000
vt 0.000000 0.000000
vt 1.000000 0.000000
vt 0.000000 1.000000
vt 0.000000 0.000000
vt 1.000000 0.000000
vt 0.000000 0.000000
vt 1.000000 0.000000
vt 0.000000 1.000000
vt 0.000000 0.000000
vt 1.000000 0.000000
vt 0.000000 1.000000
vt 0.000000 0.000000
vt 0.308658 0.038060
vt 0.146447 0.146446
vt 0.853553 0.853553
vt 0.750000 0.933013
vt 0.933013 0.250000
vt 0.750000 0.066987
vt 0.250000 0.066987
vt 0.066987 0.250000
vt 0.000000 0.500000
vt 1.000000 0.000000
vt 0.000000 1.000000
vt 0.000000 0.000000
vt 0.500000 0.000000
vt 0.345491 0.024472
vt 0.024472 0.345492
vt 1.000000 0.000000
vt 0.000000 1.000000
vt 0.000000 0.000000
vt 1.000000 0.000000
vt 0.000000 0.000000
vt 1.000000 0.000000
vt 0.000000 0.000000
vt 1.000000 0.000000
vt 0.000000 1.000000
vt 0.000000 0.000000
vt 1.000000 0.000000
vt 0.000000 1.000000
vt 0.000000 0.000000
vt 1.000000 0.000000
vt 0.000000 1.000000
vt 0.000000 0.000000
vt 1.000000 0.000000
vt 0.000000 0.000000
vt 1.000000 0.000000
vt 0.000000 1.000000
vt 0.000000 0.000000
vt 1.000000 0.000000
vt 0.000000 1.000000
vt 0.000000 0.000000
vt 0.629410 0.017037
vt 0.500000 0.000000
vt 0.146447 0.146446
vt 1.000000 1.000000
vt 1.000000 1.000000
vt 1.000000 1.000000
vt 1.000000 1.000000
vt 1.000000 1.000000
vt 1.000000 1.000000
vt 1.000000 1.000000
vt 1.000000 1.000000
vt 1.000000 1.000000
vt 1.000000 1.000000
vt 0.345492 0.975528
vt 0.500000 1.000000
vt 0.654508 0.975528
vt 0.793893 0.904508
vt 0.904508 0.793893
vt 0.975528 0.654508
vt 0.206108 0.904509
vt 1.000000 0.500000
vt 0.975528 0.345491
vt 0.904508 0.206107
vt 0.095492 0.793893
vt 0.793893 0.095491
vt 0.654508 0.024472
vt 0.000000 0.500000
vt 0.024472 0.654509
vt 0.345491 0.024472
vt 0.206107 0.095492
vt 1.000000 1.000000
vt 0.308659 0.961940
vt 0.500000 1.000000
vt 0.146447 0.853554
vt 0.691342 0.961940
vt 0.038060 0.691342
vt 0.853553 0.853553
vt 0.961940 0.691342
vt 0.038060 0.308658
vt 1.000000 0.500000
vt 0.146447 0.146446
vt 0.000000 0.500000
vt 0.853553 0.146447
vt 0.691342 0.038060
vt 0.370590 0.982963
vt 0.500000 1.000000
vt 0.853553 0.853553
vt 0.629410 0.982963
vt 0.750000 0.933013
vt 0.933013 0.750000
vt 0.982963 0.629410
vt 0.017037 0.629409
vt 1.000000 0.500000
vt 0.000000 0.500000
vt 0.066987 0.750000
vt 0.982963 0.370591
vt 0.017037 0.370590
vt 0.146446 0.853553
vt 0.250000 0.933013
vt 0.853553 0.146447
vt 0.750000 0.066987
vt 0.629410 0.017037
vt 0.500000 0.000000
vt 0.370591 0.017037
vt 0.250000 0.066987
vt 1.000000 1.000000
vt 1.000000 1.000000
vt 1.000000 1.000000
vt 1.000000 1.000000
vt 1.000000 1.000000
vt 0.308659 0.961940
vt 0.500000 1.000000
vt 0.000000 0.500000
vt 0.691342 0.961940
vt 0.038060 0.308658
vt 0.038060 0.691342
vt 0.961940 0.691342
vt 0.500000 0.000000
vt 1.000000 0.500000
vt 0.691342 0.038060
vt 0.853553 0.146447
vt 0.146447 0.853554
vt 0.961940 0.308658
vt 0.250000 0.933013
vt 0.500000 1.000000
vt 0.500000 0.000000
vt 0.933013 0.750000
vt 1.000000 0.500000
vt 0.066987 0.750000
vt 0.066987 0.250000
vt 0.000000 0.500000
vt 0.250000 0.066987
vt 0.500000 1.000000
vt 0.750000 0.933013
vt 0.933013 0.750000
vt 1.000000 0.500000
vt 0.933013 0.250000
vt 0.750000 0.066987
vt 0.250000 0.933013
vt 0.066987 0.750000
vt 0.500000 0.000000
vt 1.000000 1.000000
vt 0.345492 0.975528
vt 0.500000 1.000000
vt 0.654508 0.975528
vt 0.793893 0.904508
vt 0.904508 0.793893
vt 0.975528 0.345491
vt 0.975528 0.654508
vt 1.000000 0.500000
vt 0.024472 0.654509
vt 0.095492 0.793893
vt 0.206108 0.904509
vt 0.904508 0.206107
vt 0.000000 0.500000
vt 0.654508 0.024472
vt 0.793893 0.095491
vt 0.206107 0.095492
vt 0.095491 0.206108
vt 1.000000 1.000000
vt 1.000000 1.000000
vt 1.000000 1.000000
vt 1.000000 1.000000
vt 1.000000 1.000000
vt 1.000000 1.000000
vt 1.000000 1.000000
vt 0.370590 0.982963
vt 0.500000 1.000000
vt 0.853553 0.853553
vt 0.629410 0.982963
vt 0.750000 0.933013
vt 0.933013 0.750000
vt 0.000000 0.500000
vt 0.066987 0.750000
vt 0.146446 0.853553
vt 0.017037 0.629409
vt 0.982963 0.629410
vt 0.017037 0.370590
vt 1.000000 0.500000
vt 0.066987 0.250000
vt 0.982963 0.370591
vt 0.933013 0.250000
vt 0.853553 0.146447
vt 0.370591 0.017037
vt 0.250000 0.066987
vt 0.750000 0.066987
vn -0.0000 0.0000 -1.0000
vn 0.0000 1.0000 0.0000
vn 1.0000 -0.0000 -0.0000
vn 0.0000 -1.0000 0.0000
vn 0.0000 0.0000 1.0000
vn -1.0000 0.0000 0.0000
s off
f 7/1/1 83/2/1 10/3/1
f 4/4/2 76/5/2 3/6/2
f 82/7/3 83/2/3 81/8/3
f 16/9/4 88/10/4 17/11/4
f 47/12/4 79/13/4 5/14/4
f 8/15/2 81/16/2 7/17/2
f 11/18/5 82/19/5 8/20/5
f 79/21/3 91/22/3 80/23/3
f 14/24/2 89/25/2 13/26/2
f 75/27/3 73/28/3 76/29/3
f 49/30/1 78/31/1 50/32/1
f 1/33/4 74/34/4 2/35/4
f 42/36/3 17/37/3 14/38/3
f 87/39/3 92/40/3 89/41/3
f 43/42/1 42/36/1 41/43/1
f 3/44/3 1/45/3 6/46/3
f 15/47/2 95/48/2 51/49/2
f 3/50/1 73/28/1 1/51/1
f 86/52/3 77/53/3 85/54/3
f 2/55/5 75/56/5 4/57/5
f 94/58/3 95/48/3 93/59/3
f 18/60/5 93/61/5 15/62/5
f 17/63/5 87/64/5 14/65/5
f 61/66/5 59/67/5 58/68/5
f 21/69/2 22/70/2 19/71/2
f 67/72/4 68/73/4 56/74/4
f 48/75/1 90/76/1 47/77/1
f 63/78/3 64/79/3 48/80/3
f 10/81/4 84/82/4 11/83/4
f 6/84/2 91/22/2 48/85/2
f 9/86/2 77/53/2 49/87/2
f 51/88/1 96/89/1 52/90/1
f 50/91/4 86/92/4 12/93/4
f 12/94/5 85/95/5 9/96/5
f 13/97/1 92/40/1 16/98/1
f 5/99/5 80/100/5 6/101/5
f 52/102/4 94/103/4 18/104/4
f 19/105/6 22/106/6 39/107/6
f 7/1/1 81/108/1 83/2/1
f 4/4/2 75/109/2 76/5/2
f 82/7/3 84/110/3 83/2/3
f 16/9/4 92/111/4 88/10/4
f 47/12/4 90/112/4 79/13/4
f 8/15/2 82/113/2 81/16/2
f 11/18/5 84/110/5 82/19/5
f 79/21/3 90/112/3 91/22/3
f 14/24/2 87/114/2 89/25/2
f 75/27/3 74/115/3 73/28/3
f 49/30/1 77/116/1 78/31/1
f 1/33/4 73/117/4 74/34/4
f 7/118/3 1/119/3 2/120/3
f 4/121/3 28/122/3 36/123/3
f 8/124/3 7/118/3 2/120/3
f 2/120/3 4/121/3 35/125/3
f 4/121/3 36/123/3 35/125/3
f 35/125/3 31/126/3 2/120/3
f 31/126/3 32/127/3 2/120/3
f 11/128/3 8/124/3 40/129/3
f 8/124/3 2/120/3 32/127/3
f 40/129/3 8/124/3 32/127/3
f 40/129/3 41/130/3 11/128/3
f 41/130/3 42/36/3 14/38/3
f 11/128/3 41/130/3 14/38/3
f 13/131/3 10/132/3 11/128/3
f 42/36/3 44/133/3 21/134/3
f 14/38/3 13/131/3 11/128/3
f 42/36/3 21/134/3 17/37/3
f 87/39/3 88/135/3 92/40/3
f 46/136/1 34/137/1 36/138/1
f 34/137/1 33/139/1 35/140/1
f 36/138/1 34/137/1 35/140/1
f 37/141/1 38/142/1 32/143/1
f 38/142/1 39/144/1 40/145/1
f 37/141/1 31/146/1 33/139/1
f 31/146/1 37/141/1 32/143/1
f 39/144/1 43/42/1 41/43/1
f 35/140/1 33/139/1 31/146/1
f 38/142/1 40/145/1 32/143/1
f 43/42/1 45/147/1 44/148/1
f 41/43/1 40/145/1 39/144/1
f 43/42/1 44/148/1 42/36/1
f 20/149/3 24/150/3 18/151/3
f 24/150/3 54/152/3 18/151/3
f 54/152/3 52/153/3 18/151/3
f 15/154/3 12/155/3 13/156/3
f 12/155/3 9/157/3 10/158/3
f 15/154/3 16/159/3 18/151/3
f 16/159/3 15/154/3 13/156/3
f 9/157/3 5/160/3 7/161/3
f 20/149/3 18/151/3 16/159/3
f 17/162/3 21/163/3 20/149/3
f 10/158/3 13/156/3 12/155/3
f 9/157/3 7/161/3 10/158/3
f 16/159/3 17/162/3 20/149/3
f 6/46/3 48/164/3 55/165/3
f 5/160/3 6/46/3 1/45/3
f 7/161/3 5/160/3 1/45/3
f 6/46/3 55/165/3 29/166/3
f 29/166/3 27/167/3 3/44/3
f 27/167/3 28/168/3 3/44/3
f 28/168/3 4/169/3 3/44/3
f 29/166/3 3/44/3 6/46/3
f 15/47/2 93/170/2 95/48/2
f 3/50/1 76/171/1 73/28/1
f 86/52/3 78/172/3 77/53/3
f 2/55/5 74/115/5 75/56/5
f 94/58/3 96/173/3 95/48/3
f 18/60/5 94/174/5 93/61/5
f 17/63/5 88/135/5 87/64/5
f 64/175/5 63/176/5 65/177/5
f 63/176/5 57/178/5 60/179/5
f 64/175/5 65/177/5 68/180/5
f 58/68/5 62/181/5 66/182/5
f 62/181/5 72/183/5 69/184/5
f 69/184/5 72/183/5 70/185/5
f 67/186/5 64/175/5 68/180/5
f 72/183/5 71/187/5 70/185/5
f 65/177/5 63/176/5 60/179/5
f 57/178/5 58/68/5 59/67/5
f 59/67/5 60/179/5 57/178/5
f 62/181/5 69/184/5 66/182/5
f 66/182/5 61/66/5 58/68/5
f 24/188/2 20/189/2 23/190/2
f 20/189/2 21/69/2 19/71/2
f 23/190/2 20/189/2 19/71/2
f 21/69/2 44/191/2 45/192/2
f 21/69/2 45/192/2 22/70/2
f 54/193/2 24/188/2 23/190/2
f 70/194/2 71/195/2 54/193/2
f 23/190/2 53/196/2 54/193/2
f 53/196/2 70/194/2 54/193/2
f 25/197/4 46/198/4 36/199/4
f 28/200/4 27/201/4 25/197/4
f 27/201/4 29/202/4 26/203/4
f 25/197/4 27/201/4 26/203/4
f 25/197/4 36/199/4 28/200/4
f 30/204/4 26/203/4 29/202/4
f 29/202/4 55/205/4 30/204/4
f 55/205/4 67/72/4 56/74/4
f 30/204/4 55/205/4 56/74/4
f 48/75/1 91/206/1 90/76/1
f 50/207/3 12/208/3 15/209/3
f 51/210/3 52/211/3 72/212/3
f 52/211/3 54/213/3 71/214/3
f 50/207/3 15/209/3 51/210/3
f 5/215/3 9/216/3 49/217/3
f 50/207/3 51/210/3 62/218/3
f 52/211/3 71/214/3 72/212/3
f 47/219/3 5/215/3 49/217/3
f 48/80/3 47/219/3 63/78/3
f 47/219/3 49/217/3 57/220/3
f 58/221/3 50/207/3 62/218/3
f 49/217/3 50/207/3 58/221/3
f 51/210/3 72/212/3 62/218/3
f 67/222/3 55/223/3 48/80/3
f 58/221/3 57/220/3 49/217/3
f 57/220/3 63/78/3 47/219/3
f 64/79/3 67/222/3 48/80/3
f 10/81/4 83/224/4 84/82/4
f 6/84/2 80/225/2 91/22/2
f 9/86/2 85/226/2 77/53/2
f 51/88/1 95/227/1 96/89/1
f 50/91/4 78/172/4 86/92/4
f 12/94/5 86/228/5 85/95/5
f 13/97/1 89/229/1 92/40/1
f 5/99/5 79/230/5 80/100/5
f 52/102/4 96/173/4 94/103/4
f 30/231/6 56/232/6 60/233/6
f 56/232/6 68/234/6 65/235/6
f 65/235/6 60/233/6 56/232/6
f 60/233/6 59/236/6 33/237/6
f 26/203/6 60/233/6 33/237/6
f 46/238/6 25/239/6 34/240/6
f 25/239/6 26/203/6 33/237/6
f 34/240/6 25/239/6 33/237/6
f 26/203/6 30/231/6 60/233/6
f 59/236/6 61/241/6 37/242/6
f 61/241/6 66/243/6 38/244/6
f 59/236/6 37/242/6 33/237/6
f 38/244/6 37/242/6 61/241/6
f 69/245/6 70/246/6 53/247/6
f 66/243/6 69/245/6 53/247/6
f 45/248/6 43/249/6 22/106/6
f 43/249/6 39/107/6 22/106/6
f 39/107/6 38/244/6 66/243/6
f 66/243/6 53/247/6 23/250/6
f 39/107/6 66/243/6 19/105/6
f 23/250/6 19/105/6 66/243/6
