# Blender v2.79 (sub 6) OBJ File: 'wirebase.blend'
# www.blender.org
o w3.001_Cube.007
v -0.000202 -0.001450 0.005653
v -0.000202 -0.000796 0.005653
v -0.000202 -0.001450 0.004999
v -0.000202 -0.000796 0.004999
v 0.000335 -0.001450 0.005653
v 0.000335 -0.000796 0.005653
v 0.000335 -0.001450 0.004999
v 0.000335 -0.000796 0.004999
v -0.000247 -0.000338 0.005459
v -0.000247 -0.000338 0.004804
v 0.000290 -0.000338 0.004804
v 0.000290 -0.000338 0.005459
v -0.000455 0.000200 0.004883
v -0.000266 -0.000139 0.004372
v 0.000235 0.000033 0.004534
v 0.000046 0.000372 0.005045
v -0.000671 0.000544 0.003976
v -0.000232 0.000196 0.003835
v 0.000076 0.000676 0.004074
v -0.000364 0.001025 0.004215
v -0.000853 0.000754 0.002856
v -0.000358 0.000513 0.002773
v -0.000149 0.001093 0.002939
v -0.000644 0.001334 0.003021
v -0.000580 0.000552 0.001667
v -0.000116 0.000300 0.001879
v 0.000115 0.000889 0.001826
v -0.000349 0.001141 0.001614
v -0.000086 -0.000064 0.000648
v 0.000399 -0.000298 0.000804
v 0.000601 0.000309 0.000784
v 0.000116 0.000543 0.000628
v -0.000500 0.000014 -0.001244
v 0.000020 -0.000173 -0.001251
v 0.000175 0.000451 -0.001181
v -0.000346 0.000638 -0.001174
v 0.000009 -0.000086 -0.002184
v 0.000525 -0.000308 -0.002170
v 0.000689 0.000300 -0.002066
v 0.000173 0.000522 -0.002080
v -0.000387 0.000517 -0.002818
v 0.000055 0.000374 -0.003162
v 0.000281 0.000932 -0.002961
v -0.000160 0.001075 -0.002617
v -0.000609 0.000799 -0.004301
v -0.000123 0.000522 -0.004304
v 0.000104 0.001115 -0.004301
v -0.000382 0.001392 -0.004298
v -0.000376 0.000279 -0.005734
v 0.000102 -0.000019 -0.005728
v 0.000346 0.000563 -0.005767
v -0.000132 0.000861 -0.005774
v 0.000035 -0.000867 -0.006310
v 0.000546 -0.001008 -0.006168
v 0.000691 -0.000403 -0.006344
v 0.000180 -0.000262 -0.006486
v 0.000281 -0.002124 -0.006839
v 0.000800 -0.002118 -0.006672
v 0.000885 -0.001618 -0.007081
v 0.000366 -0.001623 -0.007249
v -0.000421 -0.000062 -0.000313
v 0.000091 -0.000240 -0.000422
v 0.000258 0.000374 -0.000309
v -0.000254 0.000552 -0.000200
vn -1.0000 0.0000 0.0000
vn 0.0000 0.0000 -1.0000
vn 1.0000 0.0000 0.0000
vn 0.0000 0.0000 1.0000
vn 0.0000 -1.0000 0.0000
vn 0.9952 0.0974 0.0000
vn 0.0000 -0.5878 -0.8090
vn -0.9952 -0.0974 0.0000
vn 0.0000 0.3915 0.9202
vn 0.0000 -0.3915 -0.9202
vn 0.6489 0.7200 0.2461
vn 0.9458 0.3249 0.0000
vn -0.9321 -0.3425 -0.1182
vn -0.4238 0.5803 0.6954
vn -0.9381 0.2797 0.2045
vn -0.6405 -0.6329 -0.4349
vn -0.8588 0.3762 0.3478
vn 0.7878 -0.2170 -0.5764
vn -0.9057 0.3315 -0.2644
vn 0.8628 -0.3947 -0.3158
vn 0.4518 0.8836 0.1230
vn -0.6426 -0.7519 -0.1476
vn 0.8070 -0.2692 0.5256
vn 0.8747 -0.3952 0.2805
vn 0.4340 0.9003 -0.0327
vn -0.4998 -0.8634 0.0694
vn 0.3030 0.9448 -0.1247
vn 0.5435 0.8065 -0.2327
vn -0.4835 -0.8426 0.2374
vn -0.8039 0.2489 -0.5402
vn 0.3378 0.9384 0.0732
vn -0.4527 -0.8887 0.0721
vn -0.9265 0.1923 0.3235
vn 0.9017 -0.3099 -0.3015
vn -0.7922 0.1102 0.6003
vn -0.3919 -0.9165 -0.0805
vn -0.8240 0.3029 -0.4789
vn 0.8152 -0.2596 0.5177
vn 0.3894 0.9131 0.1208
vn 0.8489 -0.1638 -0.5025
vn 0.5524 0.7274 0.4072
vn -0.3507 -0.8410 -0.4120
vn -0.8930 0.3568 -0.2742
vn -0.4944 -0.8685 -0.0359
vn -0.9147 0.3492 0.2035
vn 0.9331 -0.3188 -0.1666
vn 0.3653 0.5688 -0.7369
vn 0.8969 -0.3443 0.2776
vn 0.4809 0.8478 -0.2235
vn -0.5173 -0.8239 0.2313
vn -0.2696 -0.4485 0.8522
vn -0.3575 -0.5093 0.7828
vn -0.7979 0.0162 -0.6026
vn 0.6343 -0.2166 0.7421
vn 0.2418 -0.6386 -0.7306
vn -0.9569 -0.0682 -0.2824
vn 0.9092 -0.1003 0.4041
vn 0.3561 0.4933 -0.7936
vn 0.4101 -0.8209 -0.3975
vn 0.9364 0.3255 0.1311
vn 0.9479 0.2664 0.1744
vn -0.9329 -0.3602 0.0000
vn 0.0000 0.5036 0.8639
vn -0.8638 0.4001 0.3062
vn -0.8633 -0.5045 0.0145
vn -0.4248 0.5975 0.6801
vn 0.4176 -0.7830 -0.4610
vn -0.8895 0.3889 -0.2399
vn 0.9390 -0.2823 -0.1964
vn 0.6426 0.7517 0.1481
vn -0.4493 -0.8884 -0.0937
vn 0.8109 -0.2516 0.5283
vn 0.8919 -0.3212 0.3185
vn 0.4911 0.8701 -0.0424
vn -0.4307 -0.9009 0.0542
vn 0.4568 0.8850 -0.0906
vn 0.4842 0.8406 -0.2426
vn -0.5421 -0.8093 0.2261
vn -0.8002 0.2654 -0.5378
vn 0.3924 0.9170 0.0714
vn -0.3074 -0.9457 0.1055
vn -0.8690 0.3021 0.3918
vn 0.9455 -0.2114 -0.2477
vn -0.7925 0.1056 0.6006
vn -0.3377 -0.9376 -0.0831
vn -0.8234 0.2601 -0.5044
vn 0.8156 -0.3031 0.4929
vn 0.4941 0.8678 0.0532
vn 0.8524 -0.1430 -0.5031
vn 0.3467 0.8330 0.4311
vn -0.5386 -0.7525 -0.3790
vn -0.8973 0.3445 -0.2761
vn -0.3864 -0.9150 -0.1162
vn -0.9322 0.3129 0.1820
vn 0.9176 -0.3503 -0.1878
vn 0.3617 0.5701 -0.7376
vn 0.8926 -0.3565 0.2759
vn 0.5180 0.8251 -0.2255
vn -0.4803 -0.8468 0.2286
vn -0.3484 -0.4209 0.8375
vn -0.3330 -0.5157 0.7894
vn -0.6876 0.2429 -0.6843
vn 0.7296 0.0237 0.6835
vn -0.9100 0.1011 -0.4022
vn 0.9511 0.0820 0.2979
vn 0.2546 0.5312 -0.8081
s off
f 2//1 3//1 1//1
f 4//2 7//2 3//2
f 8//3 5//3 7//3
f 6//4 1//4 5//4
f 7//5 1//5 3//5
f 8//6 12//6 6//6
f 10//7 15//7 11//7
f 4//8 9//8 10//8
f 2//9 12//9 9//9
f 4//10 11//10 8//10
f 16//11 19//11 20//11
f 11//12 16//12 12//12
f 10//13 13//13 14//13
f 9//14 16//14 13//14
f 17//15 24//15 21//15
f 14//16 17//16 18//16
f 13//17 20//17 17//17
f 15//18 18//18 19//18
f 21//19 28//19 25//19
f 18//20 23//20 19//20
f 20//21 23//21 24//21
f 17//22 22//22 18//22
f 26//23 31//23 27//23
f 22//24 27//24 23//24
f 23//25 28//25 24//25
f 22//26 25//26 26//26
f 32//27 63//27 64//27
f 27//28 32//28 28//28
f 26//29 29//29 30//29
f 25//30 32//30 29//30
f 35//31 40//31 36//31
f 29//32 62//32 30//32
f 29//33 64//33 61//33
f 30//34 63//34 31//34
f 40//35 41//35 37//35
f 34//36 37//36 38//36
f 33//37 40//37 37//37
f 34//38 39//38 35//38
f 43//39 48//39 44//39
f 39//40 42//40 43//40
f 40//41 43//41 44//41
f 37//42 42//42 38//42
f 45//43 52//43 49//43
f 42//44 45//44 46//44
f 41//45 48//45 45//45
f 42//46 47//46 43//46
f 51//47 56//47 52//47
f 46//48 51//48 47//48
f 47//49 52//49 48//49
f 46//50 49//50 50//50
f 54//51 57//51 58//51
f 50//52 53//52 54//52
f 49//53 56//53 53//53
f 50//54 55//54 51//54
f 59//55 57//55 60//55
f 53//56 60//56 57//56
f 54//57 59//57 55//57
f 55//58 60//58 56//58
f 2//1 4//1 3//1
f 4//2 8//2 7//2
f 8//3 6//3 5//3
f 6//4 2//4 1//4
f 7//5 5//5 1//5
f 8//6 11//6 12//6
f 10//59 14//59 15//59
f 4//8 2//8 9//8
f 2//9 6//9 12//9
f 4//10 10//10 11//10
f 16//60 15//60 19//60
f 11//61 15//61 16//61
f 10//62 9//62 13//62
f 9//63 12//63 16//63
f 17//64 20//64 24//64
f 14//65 13//65 17//65
f 13//66 16//66 20//66
f 15//67 14//67 18//67
f 21//68 24//68 28//68
f 18//69 22//69 23//69
f 20//70 19//70 23//70
f 17//71 21//71 22//71
f 26//72 30//72 31//72
f 22//73 26//73 27//73
f 23//74 27//74 28//74
f 22//75 21//75 25//75
f 32//76 31//76 63//76
f 27//77 31//77 32//77
f 26//78 25//78 29//78
f 25//79 28//79 32//79
f 35//80 39//80 40//80
f 29//81 61//81 62//81
f 29//82 32//82 64//82
f 30//83 62//83 63//83
f 40//84 44//84 41//84
f 34//85 33//85 37//85
f 33//86 36//86 40//86
f 34//87 38//87 39//87
f 43//88 47//88 48//88
f 39//89 38//89 42//89
f 40//90 39//90 43//90
f 37//91 41//91 42//91
f 45//92 48//92 52//92
f 42//93 41//93 45//93
f 41//94 44//94 48//94
f 42//95 46//95 47//95
f 51//96 55//96 56//96
f 46//97 50//97 51//97
f 47//98 51//98 52//98
f 46//99 45//99 49//99
f 54//100 53//100 57//100
f 50//101 49//101 53//101
f 49//102 52//102 56//102
f 50//103 54//103 55//103
f 59//55 58//55 57//55
f 53//104 56//104 60//104
f 54//105 58//105 59//105
f 55//106 59//106 60//106
