# Blender v2.79 (sub 6) OBJ File: 'wirebase.blend'
# www.blender.org
o w4_Cube.005
v -0.000370 -0.001235 0.005857
v -0.000370 -0.000580 0.005857
v -0.000370 -0.001235 0.005202
v -0.000370 -0.000580 0.005202
v 0.000146 -0.001235 0.005857
v 0.000146 -0.000580 0.005857
v 0.000146 -0.001235 0.005202
v 0.000146 -0.000580 0.005202
v -0.000413 -0.000123 0.005662
v -0.000413 -0.000123 0.005007
v 0.000103 -0.000123 0.005007
v 0.000103 -0.000123 0.005662
v -0.000613 0.000415 0.005087
v -0.000431 0.000077 0.004576
v 0.000051 0.000249 0.004737
v -0.000131 0.000587 0.005248
v -0.000646 0.000722 0.003835
v -0.000418 0.000145 0.003945
v 0.000019 0.000454 0.004105
v -0.000209 0.001031 0.003996
v -0.000295 -0.000173 0.002747
v 0.000162 -0.000390 0.002958
v 0.000346 0.000222 0.002949
v -0.000112 0.000439 0.002737
v -0.000113 -0.000246 0.001702
v 0.000334 -0.000498 0.001914
v 0.000556 0.000091 0.001861
v 0.000109 0.000342 0.001649
v -0.000123 -0.000054 0.000110
v 0.000343 -0.000289 0.000266
v 0.000537 0.000318 0.000245
v 0.000071 0.000552 0.000089
v 0.000481 -0.000814 -0.001144
v 0.000958 -0.000613 -0.000998
v 0.000795 0.000008 -0.000997
v 0.000318 -0.000193 -0.001143
v 0.000105 -0.000098 -0.002154
v 0.000569 -0.000300 -0.002359
v 0.000775 0.000271 -0.002172
v 0.000311 0.000472 -0.001967
v -0.000539 0.000777 -0.003193
v -0.000073 0.000560 -0.003373
v 0.000126 0.001154 -0.003262
v -0.000340 0.001371 -0.003082
v -0.000775 0.001080 -0.004467
v -0.000307 0.000803 -0.004470
v -0.000089 0.001396 -0.004468
v -0.000557 0.001673 -0.004464
v -0.000664 0.000707 -0.005641
v -0.000205 0.000409 -0.005634
v 0.000030 0.000990 -0.005673
v -0.000429 0.001288 -0.005680
v -0.000304 -0.000373 -0.006724
v 0.000188 -0.000514 -0.006582
v 0.000327 0.000091 -0.006758
v -0.000164 0.000232 -0.006900
v 0.000095 -0.001908 -0.006636
v 0.000594 -0.001903 -0.006469
v 0.000676 -0.001402 -0.006878
v 0.000176 -0.001408 -0.007045
vn -1.0000 0.0000 0.0000
vn 0.0000 0.0000 -1.0000
vn 1.0000 0.0000 0.0000
vn 0.0000 0.0000 1.0000
vn 0.0000 -1.0000 0.0000
vn 0.9956 0.0937 0.0000
vn 0.0000 -0.5878 -0.8090
vn -0.9956 -0.0937 0.0000
vn 0.0000 0.3915 0.9202
vn 0.0000 -0.3915 -0.9202
vn 0.9221 0.3792 0.0770
vn 0.9496 0.3136 0.0000
vn -0.9367 -0.3309 -0.1142
vn -0.4377 0.5761 0.6903
vn -0.8449 0.2463 -0.4748
vn -0.9241 -0.3775 -0.0600
vn -0.6141 0.7627 0.2032
vn 0.4084 -0.8621 -0.2998
vn -0.9421 0.2799 -0.1845
vn 0.4746 -0.8274 0.3003
vn 0.9316 0.3515 -0.0930
vn -0.4884 -0.8545 0.1767
vn 0.9506 -0.3055 -0.0541
vn 0.9197 -0.3273 0.2169
vn 0.4838 0.8749 0.0203
vn -0.4374 -0.8990 0.0210
vn -0.1846 0.8241 -0.5355
vn 0.4164 0.9023 0.1111
vn -0.4458 -0.8876 -0.1154
vn -0.9331 0.3564 0.0491
vn -0.4615 0.6882 0.5598
vn 0.2678 -0.8939 0.3596
vn -0.9233 -0.2422 -0.2980
vn 0.9216 -0.2855 0.2628
vn -0.8062 0.0994 0.5833
vn 0.4499 -0.8337 -0.3203
vn -0.9519 -0.2503 0.1767
vn 0.9460 -0.3124 -0.0865
vn 0.5069 0.8553 0.1072
vn 0.7897 -0.1530 -0.5941
vn 0.5028 0.7924 0.3453
vn -0.5001 -0.7904 -0.3538
vn -0.9132 0.3555 -0.1992
vn -0.4516 -0.8866 -0.0996
vn -0.9338 0.2681 0.2370
vn 0.9136 -0.3351 -0.2302
vn 0.4716 0.7148 -0.5164
vn 0.9183 -0.3387 0.2049
vn 0.4965 0.8413 -0.2141
vn -0.5323 -0.8149 0.2292
vn -0.3173 -0.0151 0.9482
vn -0.3737 -0.7374 0.5627
vn -0.9126 0.0945 -0.3979
vn 0.8261 -0.3017 0.4760
vn 0.2509 -0.6371 -0.7288
vn -0.8467 -0.2470 -0.4713
vn 0.6222 0.0827 0.7785
vn 0.3133 0.1481 -0.9380
vn 0.4236 -0.8153 -0.3948
vn 0.9217 0.3799 0.0778
vn 0.9516 0.2571 0.1683
vn -0.9375 -0.3480 0.0000
vn 0.0000 0.5036 0.8639
vn -0.4199 0.8084 -0.4125
vn -0.9191 -0.3877 -0.0703
vn -0.4132 0.8500 0.3268
vn 0.5937 -0.8013 -0.0736
vn -0.9198 0.3274 -0.2160
vn 0.7814 -0.2256 0.5819
vn 0.4488 0.8921 -0.0527
vn -0.9299 -0.3679 0.0025
vn 0.9337 -0.3558 -0.0399
vn 0.9423 -0.2799 0.1837
vn 0.4384 0.8985 -0.0236
vn -0.4830 -0.8754 -0.0226
vn 0.4771 0.8709 -0.1177
vn 0.4440 0.8880 0.1198
vn -0.4180 -0.9022 -0.1061
vn -0.9499 0.3057 0.0647
vn 0.4596 0.8685 0.1858
vn -0.5015 -0.8255 0.2588
vn -0.8970 0.2749 -0.3461
vn 0.8963 0.2350 0.3762
vn -0.7935 0.1553 0.5884
vn -0.5027 -0.7824 -0.3676
vn -0.9383 0.2652 0.2222
vn 0.9448 0.2485 -0.2133
vn 0.4511 0.8871 0.0977
vn 0.8023 -0.0960 -0.5892
vn 0.4987 0.7943 0.3468
vn -0.5038 -0.7887 -0.3523
vn -0.9186 0.3388 -0.2036
vn -0.5068 -0.8551 -0.1090
vn -0.9164 0.3362 0.2172
vn 0.9299 -0.2630 -0.2570
vn 0.3714 0.7624 -0.5300
vn 0.9129 -0.3553 0.2008
vn 0.5331 0.8164 -0.2221
vn -0.4957 -0.8401 0.2201
vn -0.2821 -0.0178 0.9592
vn -0.4625 -0.7001 0.5440
vn -0.8385 0.3085 -0.4491
vn 0.8927 -0.0766 0.4440
vn -0.6523 -0.0689 -0.7548
vn 0.8161 0.2800 0.5055
vn 0.3125 0.1482 -0.9383
s off
f 2//1 3//1 1//1
f 4//2 7//2 3//2
f 8//3 5//3 7//3
f 6//4 1//4 5//4
f 7//5 1//5 3//5
f 8//6 12//6 6//6
f 10//7 15//7 11//7
f 4//8 9//8 10//8
f 2//9 12//9 9//9
f 4//10 11//10 8//10
f 15//11 20//11 16//11
f 11//12 16//12 12//12
f 10//13 13//13 14//13
f 9//14 16//14 13//14
f 17//15 24//15 21//15
f 14//16 17//16 18//16
f 13//17 20//17 17//17
f 14//18 19//18 15//18
f 24//19 25//19 21//19
f 18//20 23//20 19//20
f 19//21 24//21 20//21
f 18//22 21//22 22//22
f 27//23 30//23 31//23
f 23//24 26//24 27//24
f 24//25 27//25 28//25
f 21//26 26//26 22//26
f 32//27 35//27 36//27
f 28//28 31//28 32//28
f 25//29 30//29 26//29
f 28//30 29//30 25//30
f 35//31 40//31 36//31
f 30//32 33//32 34//32
f 29//33 36//33 33//33
f 30//34 35//34 31//34
f 40//35 41//35 37//35
f 33//36 38//36 34//36
f 36//37 37//37 33//37
f 35//38 38//38 39//38
f 44//39 47//39 48//39
f 39//40 42//40 43//40
f 40//41 43//41 44//41
f 37//42 42//42 38//42
f 45//43 52//43 49//43
f 41//44 46//44 42//44
f 44//45 45//45 41//45
f 43//46 46//46 47//46
f 51//47 56//47 52//47
f 46//48 51//48 47//48
f 47//49 52//49 48//49
f 46//50 49//50 50//50
f 54//51 57//51 58//51
f 50//52 53//52 54//52
f 49//53 56//53 53//53
f 50//54 55//54 51//54
f 59//55 57//55 60//55
f 53//56 60//56 57//56
f 54//57 59//57 55//57
f 55//58 60//58 56//58
f 2//1 4//1 3//1
f 4//2 8//2 7//2
f 8//3 6//3 5//3
f 6//4 2//4 1//4
f 7//5 5//5 1//5
f 8//6 11//6 12//6
f 10//59 14//59 15//59
f 4//8 2//8 9//8
f 2//9 6//9 12//9
f 4//10 10//10 11//10
f 15//60 19//60 20//60
f 11//61 15//61 16//61
f 10//62 9//62 13//62
f 9//63 12//63 16//63
f 17//64 20//64 24//64
f 14//65 13//65 17//65
f 13//66 16//66 20//66
f 14//67 18//67 19//67
f 24//68 28//68 25//68
f 18//69 22//69 23//69
f 19//70 23//70 24//70
f 18//71 17//71 21//71
f 27//72 26//72 30//72
f 23//73 22//73 26//73
f 24//74 23//74 27//74
f 21//75 25//75 26//75
f 32//76 31//76 35//76
f 28//77 27//77 31//77
f 25//78 29//78 30//78
f 28//79 32//79 29//79
f 35//80 39//80 40//80
f 30//81 29//81 33//81
f 29//82 32//82 36//82
f 30//83 34//83 35//83
f 40//84 44//84 41//84
f 33//85 37//85 38//85
f 36//86 40//86 37//86
f 35//87 34//87 38//87
f 44//88 43//88 47//88
f 39//89 38//89 42//89
f 40//90 39//90 43//90
f 37//91 41//91 42//91
f 45//92 48//92 52//92
f 41//93 45//93 46//93
f 44//94 48//94 45//94
f 43//95 42//95 46//95
f 51//96 55//96 56//96
f 46//97 50//97 51//97
f 47//98 51//98 52//98
f 46//99 45//99 49//99
f 54//100 53//100 57//100
f 50//101 49//101 53//101
f 49//102 52//102 56//102
f 50//103 54//103 55//103
f 59//55 58//55 57//55
f 53//104 56//104 60//104
f 54//105 58//105 59//105
f 55//106 59//106 60//106
