# Blender v2.79 (sub 6) OBJ File: 'wirebase.blend'
# www.blender.org
o w2_Cube.003
v -0.000421 -0.001189 0.005550
v -0.000421 -0.000535 0.005550
v -0.000421 -0.001189 0.004895
v -0.000421 -0.000535 0.004895
v 0.000122 -0.001189 0.005550
v 0.000122 -0.000535 0.005550
v 0.000122 -0.001189 0.004895
v 0.000122 -0.000535 0.004895
v -0.000467 -0.000077 0.005356
v -0.000467 -0.000077 0.004701
v 0.000076 -0.000077 0.004701
v 0.000076 -0.000077 0.005356
v -0.000677 0.000461 0.004780
v -0.000486 0.000122 0.004269
v 0.000021 0.000294 0.004431
v -0.000170 0.000633 0.004942
v -0.000609 0.000422 0.003663
v -0.000159 0.000057 0.003619
v 0.000137 0.000561 0.003838
v -0.000313 0.000926 0.003882
v -0.000323 -0.000039 0.002663
v 0.000146 -0.000268 0.002902
v 0.000350 0.000339 0.002902
v -0.000119 0.000568 0.002663
v -0.000292 0.000095 0.001576
v 0.000204 -0.000171 0.001583
v 0.000425 0.000425 0.001627
v -0.000071 0.000692 0.001619
v -0.000303 0.000197 0.000545
v 0.000187 -0.000037 0.000701
v 0.000391 0.000570 0.000680
v -0.000100 0.000804 0.000525
v 0.000043 -0.000180 -0.000783
v 0.000532 -0.000340 -0.000547
v 0.000692 0.000283 -0.000607
v 0.000203 0.000443 -0.000843
v -0.000076 0.000129 -0.001957
v 0.000431 -0.000105 -0.001977
v 0.000626 0.000501 -0.001898
v 0.000119 0.000735 -0.001877
v -0.000461 0.000554 -0.003007
v 0.000030 0.000337 -0.003187
v 0.000239 0.000931 -0.003076
v -0.000251 0.001148 -0.002895
v -0.000444 0.000485 -0.004237
v 0.000048 0.000208 -0.004240
v 0.000278 0.000801 -0.004237
v -0.000214 0.001078 -0.004234
v -0.000403 0.000229 -0.005415
v 0.000081 -0.000069 -0.005409
v 0.000328 0.000513 -0.005448
v -0.000156 0.000811 -0.005455
v -0.000181 -0.000607 -0.006413
v 0.000336 -0.000747 -0.006271
v 0.000483 -0.000142 -0.006447
v -0.000035 -0.000001 -0.006589
v 0.000067 -0.001863 -0.006942
v 0.000593 -0.001857 -0.006775
v 0.000679 -0.001357 -0.007185
v 0.000154 -0.001362 -0.007352
vn -1.0000 0.0000 0.0000
vn 0.0000 0.0000 -1.0000
vn 1.0000 0.0000 0.0000
vn 0.0000 0.0000 1.0000
vn 0.0000 -1.0000 0.0000
vn 0.9951 0.0986 0.0000
vn 0.0000 -0.5878 -0.8090
vn -0.9951 -0.0986 0.0000
vn 0.0000 0.3915 0.9202
vn 0.0000 -0.3915 -0.9202
vn 0.8791 0.4765 0.0137
vn 0.9446 0.3283 0.0000
vn -0.9306 -0.3460 -0.1194
vn -0.4197 0.5815 0.6969
vn -0.8748 0.2942 -0.3850
vn -0.6253 -0.7425 -0.2403
vn -0.8466 0.5276 -0.0703
vn 0.8705 -0.4896 -0.0500
vn -0.9478 0.3188 0.0121
vn 0.7557 -0.5775 0.3088
vn 0.6166 0.7765 -0.1299
vn -0.5015 -0.8480 0.1713
vn 0.9438 -0.3201 -0.0825
vn 0.9368 -0.3484 0.0315
vn 0.4684 0.8746 0.1255
vn -0.4022 -0.9117 -0.0845
vn 0.3750 0.9134 -0.1582
vn 0.4081 0.9092 0.0822
vn -0.4685 -0.8747 -0.1241
vn -0.9381 0.3434 0.0445
vn 0.4173 0.8828 0.2157
vn -0.4524 -0.8872 0.0904
vn -0.9298 0.2100 -0.3021
vn 0.9128 -0.2975 0.2797
vn -0.8804 0.2294 0.4151
vn -0.2462 -0.9591 -0.1399
vn -0.9512 0.2608 0.1651
vn 0.9509 -0.2936 -0.0983
vn 0.3930 0.9188 -0.0370
vn 0.8918 -0.2426 -0.3818
vn 0.4544 0.8709 0.1875
vn -0.4188 -0.8888 -0.1859
vn -0.9169 0.3822 -0.1149
vn -0.4873 -0.8677 0.0977
vn -0.9320 0.3610 -0.0328
vn 0.9368 -0.3430 0.0698
vn 0.4647 0.7427 -0.4821
vn 0.9252 -0.3587 0.1239
vn 0.4826 0.8602 -0.1649
vn -0.5178 -0.8356 0.1834
vn -0.2667 -0.4489 0.8529
vn -0.3534 -0.7833 0.5114
vn -0.9377 0.1340 -0.3206
vn 0.8671 -0.3445 0.3599
vn 0.2391 -0.6390 -0.7311
vn -0.9559 -0.0690 -0.2854
vn 0.9073 -0.1013 0.4081
vn 0.3525 0.4940 -0.7948
vn 0.4061 -0.8225 -0.3983
vn 0.5950 0.6829 0.4237
vn 0.9468 0.2693 0.1763
vn -0.9314 -0.3639 0.0000
vn 0.0000 0.5036 0.8639
vn -0.7650 0.5750 -0.2903
vn -0.8940 -0.4463 -0.0393
vn -0.3897 0.8728 0.2938
vn 0.2494 -0.9431 0.2200
vn -0.9380 0.3467 -0.0016
vn 0.8318 -0.2797 0.4795
vn 0.4770 0.8733 -0.0989
vn -0.6083 -0.7725 0.1820
vn 0.9373 -0.3413 -0.0702
vn 0.9477 -0.3187 0.0188
vn 0.4018 0.9118 0.0854
vn -0.4687 -0.8750 -0.1215
vn 0.4527 0.8869 -0.0916
vn 0.4690 0.8755 0.1166
vn -0.4072 -0.9093 -0.0853
vn -0.9457 0.3199 0.0570
vn 0.2416 0.9588 0.1494
vn -0.3761 -0.9124 0.1611
vn -0.9126 0.2974 -0.2804
vn 0.9283 -0.2092 0.3073
vn -0.8800 0.2323 0.4144
vn -0.4186 -0.8878 -0.1915
vn -0.9458 0.2842 0.1572
vn 0.9599 -0.2577 -0.1102
vn 0.4881 0.8690 -0.0805
vn 0.8927 -0.2376 -0.3828
vn 0.4188 0.8887 0.1868
vn -0.4540 -0.8714 -0.1859
vn -0.9253 0.3588 -0.1232
vn -0.3900 -0.9197 0.0464
vn -0.9397 0.3391 -0.0436
vn 0.9307 -0.3606 0.0605
vn 0.3500 0.8075 -0.4748
vn 0.9168 -0.3820 0.1160
vn 0.5183 0.8365 -0.1778
vn -0.4822 -0.8595 0.1693
vn -0.3448 -0.4215 0.8387
vn -0.4568 -0.7293 0.5094
vn -0.8728 0.3481 -0.3423
vn 0.9233 -0.1175 0.3658
vn -0.9081 0.1021 -0.4061
vn 0.9500 0.0828 0.3011
vn 0.2518 0.5316 -0.8087
s off
f 2//1 3//1 1//1
f 4//2 7//2 3//2
f 8//3 5//3 7//3
f 6//4 1//4 5//4
f 7//5 1//5 3//5
f 8//6 12//6 6//6
f 10//7 15//7 11//7
f 4//8 9//8 10//8
f 2//9 12//9 9//9
f 4//10 11//10 8//10
f 15//11 20//11 16//11
f 11//12 16//12 12//12
f 10//13 13//13 14//13
f 9//14 16//14 13//14
f 17//15 24//15 21//15
f 14//16 17//16 18//16
f 13//17 20//17 17//17
f 15//18 18//18 19//18
f 24//19 25//19 21//19
f 18//20 23//20 19//20
f 19//21 24//21 20//21
f 18//22 21//22 22//22
f 27//23 30//23 31//23
f 23//24 26//24 27//24
f 24//25 27//25 28//25
f 21//26 26//26 22//26
f 32//27 35//27 36//27
f 28//28 31//28 32//28
f 25//29 30//29 26//29
f 28//30 29//30 25//30
f 36//31 39//31 40//31
f 29//32 34//32 30//32
f 29//33 36//33 33//33
f 30//34 35//34 31//34
f 40//35 41//35 37//35
f 33//36 38//36 34//36
f 36//37 37//37 33//37
f 35//38 38//38 39//38
f 43//39 48//39 44//39
f 39//40 42//40 43//40
f 40//41 43//41 44//41
f 37//42 42//42 38//42
f 45//43 52//43 49//43
f 42//44 45//44 46//44
f 41//45 48//45 45//45
f 42//46 47//46 43//46
f 51//47 56//47 52//47
f 46//48 51//48 47//48
f 47//49 52//49 48//49
f 46//50 49//50 50//50
f 54//51 57//51 58//51
f 50//52 53//52 54//52
f 49//53 56//53 53//53
f 50//54 55//54 51//54
f 59//55 57//55 60//55
f 53//56 60//56 57//56
f 54//57 59//57 55//57
f 55//58 60//58 56//58
f 2//1 4//1 3//1
f 4//2 8//2 7//2
f 8//3 6//3 5//3
f 6//4 2//4 1//4
f 7//5 5//5 1//5
f 8//6 11//6 12//6
f 10//59 14//59 15//59
f 4//8 2//8 9//8
f 2//9 6//9 12//9
f 4//10 10//10 11//10
f 15//60 19//60 20//60
f 11//61 15//61 16//61
f 10//62 9//62 13//62
f 9//63 12//63 16//63
f 17//64 20//64 24//64
f 14//65 13//65 17//65
f 13//66 16//66 20//66
f 15//67 14//67 18//67
f 24//68 28//68 25//68
f 18//69 22//69 23//69
f 19//70 23//70 24//70
f 18//71 17//71 21//71
f 27//72 26//72 30//72
f 23//73 22//73 26//73
f 24//74 23//74 27//74
f 21//75 25//75 26//75
f 32//76 31//76 35//76
f 28//77 27//77 31//77
f 25//78 29//78 30//78
f 28//79 32//79 29//79
f 36//80 35//80 39//80
f 29//81 33//81 34//81
f 29//82 32//82 36//82
f 30//83 34//83 35//83
f 40//84 44//84 41//84
f 33//85 37//85 38//85
f 36//86 40//86 37//86
f 35//87 34//87 38//87
f 43//88 47//88 48//88
f 39//89 38//89 42//89
f 40//90 39//90 43//90
f 37//91 41//91 42//91
f 45//92 48//92 52//92
f 42//93 41//93 45//93
f 41//94 44//94 48//94
f 42//95 46//95 47//95
f 51//96 55//96 56//96
f 46//97 50//97 51//97
f 47//98 51//98 52//98
f 46//99 45//99 49//99
f 54//100 53//100 57//100
f 50//101 49//101 53//101
f 49//102 52//102 56//102
f 50//103 54//103 55//103
f 59//55 58//55 57//55
f 53//104 56//104 60//104
f 54//105 58//105 59//105
f 55//106 59//106 60//106
