# Blender v2.79 (sub 6) OBJ File: 'wirebase.blend'
# www.blender.org
o w1_Cube.002
v -0.000393 -0.001231 0.005404
v -0.000393 -0.000577 0.005404
v -0.000393 -0.001231 0.004750
v -0.000393 -0.000577 0.004750
v 0.000153 -0.001231 0.005404
v 0.000153 -0.000577 0.005404
v 0.000153 -0.001231 0.004750
v 0.000153 -0.000577 0.004750
v -0.000439 -0.000119 0.005210
v -0.000439 -0.000119 0.004555
v 0.000108 -0.000119 0.004555
v 0.000108 -0.000119 0.005210
v -0.000650 0.000419 0.004634
v -0.000458 0.000081 0.004123
v 0.000052 0.000252 0.004285
v -0.000141 0.000591 0.004796
v -0.000581 0.000380 0.003518
v -0.000129 0.000016 0.003474
v 0.000169 0.000519 0.003692
v -0.000284 0.000884 0.003736
v -0.000294 -0.000081 0.002517
v 0.000177 -0.000309 0.002756
v 0.000382 0.000297 0.002756
v -0.000089 0.000526 0.002517
v -0.000263 0.000054 0.001430
v 0.000236 -0.000213 0.001438
v 0.000458 0.000384 0.001481
v -0.000041 0.000650 0.001473
v -0.000795 0.000805 0.000638
v -0.000340 0.000586 0.000349
v -0.000085 0.001144 0.000504
v -0.000540 0.001363 0.000792
v -0.000819 0.000872 -0.000515
v -0.000309 0.000643 -0.000470
v -0.000121 0.001255 -0.000410
v -0.000632 0.001484 -0.000455
v -0.000436 0.000594 -0.001647
v 0.000062 0.000387 -0.001476
v 0.000244 0.001004 -0.001488
v -0.000255 0.001211 -0.001659
v 0.000156 -0.000181 -0.002595
v 0.000594 -0.000291 -0.002219
v 0.000793 0.000297 -0.002379
v 0.000355 0.000407 -0.002755
v 0.000232 -0.000333 -0.003904
v 0.000727 -0.000610 -0.003907
v 0.000958 -0.000016 -0.003904
v 0.000463 0.000261 -0.003901
v -0.000244 0.000033 -0.005457
v 0.000191 -0.000262 -0.005722
v 0.000480 0.000290 -0.005657
v 0.000045 0.000585 -0.005392
v -0.000151 -0.000648 -0.006559
v 0.000369 -0.000789 -0.006417
v 0.000516 -0.000184 -0.006593
v -0.000004 -0.000043 -0.006735
v 0.000099 -0.001904 -0.007088
v 0.000627 -0.001899 -0.006921
v 0.000713 -0.001399 -0.007330
v 0.000185 -0.001404 -0.007497
vn -1.0000 0.0000 0.0000
vn 0.0000 0.0000 -1.0000
vn 1.0000 0.0000 0.0000
vn 0.0000 0.0000 1.0000
vn 0.0000 -1.0000 0.0000
vn 0.9951 0.0991 0.0000
vn 0.0000 -0.5878 -0.8090
vn -0.9951 -0.0991 0.0000
vn 0.0000 0.3915 0.9202
vn 0.0000 -0.3915 -0.9202
vn 0.8780 0.4785 0.0138
vn 0.9440 0.3300 0.0000
vn -0.9299 -0.3477 -0.1200
vn -0.4178 0.5821 0.6976
vn -0.8736 0.2954 -0.3866
vn -0.6232 -0.7441 -0.2408
vn -0.8452 0.5297 -0.0705
vn 0.8693 -0.4917 -0.0502
vn -0.9472 0.3204 0.0122
vn 0.7539 -0.5794 0.3097
vn 0.6145 0.7781 -0.1302
vn -0.4994 -0.8492 0.1715
vn 0.7846 -0.1961 -0.5882
vn 0.9362 -0.3502 0.0316
vn 0.4663 0.8756 0.1257
vn -0.4003 -0.9125 -0.0846
vn 0.4598 0.8865 0.0520
vn 0.5771 0.7381 0.3495
vn -0.4331 -0.8205 -0.3731
vn -0.7054 0.2131 0.6760
vn 0.4137 0.9073 -0.0756
vn -0.4023 -0.9121 -0.0785
vn -0.9565 0.2895 0.0367
vn 0.9147 -0.3953 -0.0845
vn -0.8000 0.1103 -0.5898
vn -0.4063 -0.9101 0.0816
vn -0.8949 0.2561 -0.3655
vn 0.8783 -0.3051 0.3681
vn 0.4867 0.8711 -0.0661
vn 0.7500 -0.2085 0.6277
vn 0.4587 0.8188 -0.3452
vn -0.5047 -0.7862 0.3566
vn -0.8743 0.3390 0.3474
vn -0.3582 -0.9222 0.1457
vn -0.9504 0.2979 -0.0896
vn 0.9473 -0.2778 0.1593
vn 0.3280 0.8511 -0.4100
vn 0.8886 -0.3447 -0.3026
vn 0.5701 0.8214 0.0192
vn -0.4880 -0.8725 -0.0230
vn -0.2653 -0.4490 0.8532
vn -0.3513 -0.7872 0.5069
vn -0.9649 0.1794 -0.1916
vn 0.8393 -0.4712 0.2713
vn 0.2379 -0.6392 -0.7313
vn -0.9555 -0.0693 -0.2869
vn 0.9064 -0.1018 0.4100
vn 0.3508 0.4944 -0.7953
vn 0.4042 -0.8233 -0.3986
vn 0.5929 0.6843 0.4246
vn 0.9462 0.2706 0.1771
vn -0.9307 -0.3657 0.0000
vn 0.0000 0.5036 0.8639
vn -0.7632 0.5768 -0.2912
vn -0.8930 -0.4483 -0.0395
vn -0.3879 0.8736 0.2940
vn 0.2481 -0.9434 0.2201
vn -0.9373 0.3484 -0.0016
vn 0.8303 -0.2808 0.4814
vn 0.4749 0.8745 -0.0990
vn -0.6062 -0.7741 0.1824
vn 0.7715 -0.2441 -0.5875
vn 0.9471 -0.3203 0.0189
vn 0.3999 0.9126 0.0855
vn -0.4666 -0.8760 -0.1217
vn 0.4005 0.9114 0.0947
vn 0.4287 0.8129 0.3943
vn -0.5710 -0.7519 -0.3295
vn -0.7216 0.1425 0.6775
vn 0.4045 0.9115 -0.0748
vn -0.4549 -0.8896 -0.0419
vn -0.9149 0.3897 0.1051
vn 0.9556 -0.2944 0.0162
vn -0.7767 0.2171 -0.5912
vn -0.4140 -0.9066 0.0823
vn -0.8868 0.3056 -0.3468
vn 0.8853 -0.2528 0.3904
vn 0.3613 0.9203 -0.1499
vn 0.7700 -0.0886 0.6319
vn 0.4911 0.8040 -0.3354
vn -0.4619 -0.8059 0.3702
vn -0.8524 0.4076 0.3274
vn -0.4864 -0.8707 0.0731
vn -0.9234 0.3601 -0.1326
vn 0.9224 -0.3597 0.1405
vn 0.3412 0.8440 -0.4137
vn 0.8519 -0.4071 -0.3294
vn 0.4880 0.8726 0.0193
vn -0.5701 -0.8214 -0.0191
vn -0.3431 -0.4218 0.8393
vn -0.2641 -0.8301 0.4911
vn -0.8606 0.4728 -0.1895
vn 0.9326 -0.1293 0.3370
vn -0.9072 0.1025 -0.4080
vn 0.9495 0.0833 0.3027
vn 0.2505 0.5317 -0.8090
s off
f 2//1 3//1 1//1
f 4//2 7//2 3//2
f 8//3 5//3 7//3
f 6//4 1//4 5//4
f 7//5 1//5 3//5
f 8//6 12//6 6//6
f 10//7 15//7 11//7
f 4//8 9//8 10//8
f 2//9 12//9 9//9
f 4//10 11//10 8//10
f 15//11 20//11 16//11
f 11//12 16//12 12//12
f 10//13 13//13 14//13
f 9//14 16//14 13//14
f 17//15 24//15 21//15
f 14//16 17//16 18//16
f 13//17 20//17 17//17
f 15//18 18//18 19//18
f 24//19 25//19 21//19
f 18//20 23//20 19//20
f 19//21 24//21 20//21
f 18//22 21//22 22//22
f 27//23 30//23 31//23
f 23//24 26//24 27//24
f 24//25 27//25 28//25
f 21//26 26//26 22//26
f 31//27 36//27 32//27
f 28//28 31//28 32//28
f 25//29 30//29 26//29
f 28//30 29//30 25//30
f 35//31 40//31 36//31
f 30//32 33//32 34//32
f 29//33 36//33 33//33
f 30//34 35//34 31//34
f 37//35 44//35 41//35
f 34//36 37//36 38//36
f 33//37 40//37 37//37
f 34//38 39//38 35//38
f 44//39 47//39 48//39
f 38//40 43//40 39//40
f 39//41 44//41 40//41
f 38//42 41//42 42//42
f 48//43 49//43 45//43
f 41//44 46//44 42//44
f 44//45 45//45 41//45
f 42//46 47//46 43//46
f 51//47 56//47 52//47
f 46//48 51//48 47//48
f 48//49 51//49 52//49
f 45//50 50//50 46//50
f 54//51 57//51 58//51
f 50//52 53//52 54//52
f 49//53 56//53 53//53
f 50//54 55//54 51//54
f 59//55 57//55 60//55
f 53//56 60//56 57//56
f 54//57 59//57 55//57
f 55//58 60//58 56//58
f 2//1 4//1 3//1
f 4//2 8//2 7//2
f 8//3 6//3 5//3
f 6//4 2//4 1//4
f 7//5 5//5 1//5
f 8//6 11//6 12//6
f 10//59 14//59 15//59
f 4//8 2//8 9//8
f 2//9 6//9 12//9
f 4//10 10//10 11//10
f 15//60 19//60 20//60
f 11//61 15//61 16//61
f 10//62 9//62 13//62
f 9//63 12//63 16//63
f 17//64 20//64 24//64
f 14//65 13//65 17//65
f 13//66 16//66 20//66
f 15//67 14//67 18//67
f 24//68 28//68 25//68
f 18//69 22//69 23//69
f 19//70 23//70 24//70
f 18//71 17//71 21//71
f 27//72 26//72 30//72
f 23//73 22//73 26//73
f 24//74 23//74 27//74
f 21//75 25//75 26//75
f 31//76 35//76 36//76
f 28//77 27//77 31//77
f 25//78 29//78 30//78
f 28//79 32//79 29//79
f 35//80 39//80 40//80
f 30//81 29//81 33//81
f 29//82 32//82 36//82
f 30//83 34//83 35//83
f 37//84 40//84 44//84
f 34//85 33//85 37//85
f 33//86 36//86 40//86
f 34//87 38//87 39//87
f 44//88 43//88 47//88
f 38//89 42//89 43//89
f 39//90 43//90 44//90
f 38//91 37//91 41//91
f 48//92 52//92 49//92
f 41//93 45//93 46//93
f 44//94 48//94 45//94
f 42//95 46//95 47//95
f 51//96 55//96 56//96
f 46//97 50//97 51//97
f 48//98 47//98 51//98
f 45//99 49//99 50//99
f 54//100 53//100 57//100
f 50//101 49//101 53//101
f 49//102 52//102 56//102
f 50//103 54//103 55//103
f 59//55 58//55 57//55
f 53//104 56//104 60//104
f 54//105 58//105 59//105
f 55//106 59//106 60//106
